<svg viewBox="0 0 767 202" fill="none" xmlns="http://www.w3.org/2000/svg"><path d="M7.776.4H90.72c28.032 0 51.072 7.008 69.12 21.024C178.08 35.248 187.2 54.64 187.2 79.6v42.912c0 26.112-8.832 45.888-26.496 59.328C143.04 195.28 119.808 202 91.008 202H7.776c-2.112 0-3.936-.768-5.472-2.304C.768 198.16 0 196.336 0 194.224V8.176C0 6.064.768 4.24 2.304 2.704 3.84 1.168 5.664.4 7.776.4zM72 56.56v89.28h18.72c6.528 0 11.712-1.92 15.552-5.76 4.032-4.032 6.048-9.888 6.048-17.568V79.6c0-15.36-7.2-23.04-21.6-23.04H72z" fill="url(#paint0_linear_1_101)" fill-opacity=".7"/><path d="M287.932 145.84h88.705c2.112 0 3.936.768 5.472 2.304 1.536 1.536 2.304 3.36 2.304 5.472v40.608c0 2.112-.768 3.936-2.304 5.472-1.536 1.536-3.36 2.304-5.472 2.304H226.589c-2.112 0-3.937-.768-5.472-2.304-1.536-1.536-2.305-3.36-2.305-5.472V8.176c0-2.112.769-3.936 2.305-5.472C222.652 1.168 224.477.4 226.589.4h147.743c2.112 0 3.937.768 5.473 2.304 1.536 1.536 2.304 3.36 2.304 5.472v40.608c0 2.112-.768 3.936-2.304 5.472-1.536 1.536-3.361 2.304-5.473 2.304h-86.4v18.144h80.064c2.112 0 3.936.768 5.473 2.304 1.535 1.536 2.303 3.36 2.303 5.472v37.44c0 2.112-.768 3.936-2.303 5.472-1.537 1.536-3.361 2.304-5.473 2.304h-80.064v18.144z" fill="url(#paint1_linear_1_101)" fill-opacity=".7"/><path d="M492.215 142.96h79.775c2.112 0 3.937.768 5.473 2.304 1.536 1.536 2.303 3.36 2.303 5.472v43.488c0 2.112-.767 3.936-2.303 5.472-1.536 1.536-3.361 2.304-5.473 2.304H426.839c-2.112 0-3.937-.768-5.473-2.304-1.536-1.536-2.304-3.36-2.304-5.472V8.176c0-2.112.768-3.936 2.304-5.472C422.902 1.168 424.727.4 426.839.4h57.6c2.112 0 3.935.768 5.471 2.304 1.537 1.536 2.305 3.36 2.305 5.472V142.96z" fill="url(#paint2_linear_1_101)" fill-opacity=".7"/><path d="M678.964 142.96h79.776c2.112 0 3.937.768 5.473 2.304 1.536 1.536 2.303 3.36 2.303 5.472v43.488c0 2.112-.767 3.936-2.303 5.472-1.536 1.536-3.361 2.304-5.473 2.304H613.589c-2.112 0-3.937-.768-5.473-2.304-1.536-1.536-2.304-3.36-2.304-5.472V8.176c0-2.112.768-3.936 2.304-5.472C609.652 1.168 611.477.4 613.589.4h57.599c2.112 0 3.937.768 5.473 2.304 1.536 1.536 2.303 3.36 2.303 5.472V142.96z" fill="url(#paint3_linear_1_101)" fill-opacity=".7"/><defs><linearGradient id="paint0_linear_1_101" x1="378.356" y1="12.225" x2="378.356" y2="202" gradientUnits="userSpaceOnUse"><stop stop-color="#fff" stop-opacity=".979"/><stop offset="1" stop-color="#F2F2F2"/></linearGradient><linearGradient id="paint1_linear_1_101" x1="378.356" y1="12.225" x2="378.356" y2="202" gradientUnits="userSpaceOnUse"><stop stop-color="#fff" stop-opacity=".979"/><stop offset="1" stop-color="#F2F2F2"/></linearGradient><linearGradient id="paint2_linear_1_101" x1="378.356" y1="12.225" x2="378.356" y2="202" gradientUnits="userSpaceOnUse"><stop stop-color="#fff" stop-opacity=".979"/><stop offset="1" stop-color="#F2F2F2"/></linearGradient><linearGradient id="paint3_linear_1_101" x1="378.356" y1="12.225" x2="378.356" y2="202" gradientUnits="userSpaceOnUse"><stop stop-color="#fff" stop-opacity=".979"/><stop offset="1" stop-color="#F2F2F2"/></linearGradient></defs></svg>